<svg width="101" height="100" viewBox="0 0 101 100" fill="none" xmlns="http://www.w3.org/2000/svg">
<g clip-path="url(#clip0_2207_65708)">
<path d="M95.1548 10H5.84522C2.89314 10 0.5 12.3931 0.5 15.3452V84.6548C0.5 87.6069 2.89314 90 5.84522 90H95.1548C98.1069 90 100.5 87.6069 100.5 84.6548V15.3452C100.5 12.3931 98.1069 10 95.1548 10Z" fill="#6D5FCB"/>
<path d="M0.5 25.0625H100.5" stroke="white" stroke-width="3" stroke-miterlimit="10"/>
<path d="M17.2396 66.375L83.7656 66.375C86.527 66.375 88.7656 64.1364 88.7656 61.375V48.6767C88.7656 45.9153 86.527 43.6767 83.7656 43.6767L17.2396 43.6767C14.4781 43.6767 12.2396 45.9153 12.2396 48.6767V61.375C12.2396 64.1364 14.4781 66.375 17.2396 66.375Z" fill="url(#paint0_linear_2207_65708)"/>
<path d="M24.1953 50.918L33.4029 57.1031L46.576 38.7344" stroke="#3C2F9B" stroke-width="4" stroke-miterlimit="10"/>
<path d="M11.5703 17.9688H28.9522" stroke="white" stroke-width="3" stroke-miterlimit="10"/>
<path d="M50.5 55.0312H67.8818" stroke="#3C2F9B" stroke-width="4" stroke-miterlimit="10"/>
<path d="M34.5703 80.7266H66.4342" stroke="white" stroke-width="3" stroke-miterlimit="10"/>
</g>
<defs>
<linearGradient id="paint0_linear_2207_65708" x1="50.5026" y1="66.375" x2="50.5026" y2="43.6767" gradientUnits="userSpaceOnUse">
<stop stop-color="#D6D2FE"/>
<stop offset="1" stop-color="#E6E6FE"/>
</linearGradient>
<clipPath id="clip0_2207_65708">
<rect width="100" height="100" fill="white" transform="translate(0.5)"/>
</clipPath>
</defs>
</svg>
