<svg width="24" height="24" viewBox="0 0 24 24" fill="none" xmlns="http://www.w3.org/2000/svg">
<g style="mix-blend-mode:multiply">
<rect x="0.5" y="0.5" width="23" height="23" rx="11.5" fill="#F9FAFB"/>
<rect x="0.5" y="0.5" width="23" height="23" rx="11.5" stroke="#EAECF0"/>
<g clip-path="url(#clip0_3909_9836)">
<path d="M17 16.5V15.5C17 14.5681 16.3626 13.785 15.5 13.563M13.75 7.64538C14.483 7.94207 15 8.66066 15 9.5C15 10.3393 14.483 11.0579 13.75 11.3546M14.5 16.5C14.5 15.5681 14.5 15.1022 14.3478 14.7346C14.1448 14.2446 13.7554 13.8552 13.2654 13.6522C12.8978 13.5 12.4319 13.5 11.5 13.5H10C9.06812 13.5 8.60218 13.5 8.23463 13.6522C7.74458 13.8552 7.35523 14.2446 7.15224 14.7346C7 15.1022 7 15.5681 7 16.5M12.75 9.5C12.75 10.6046 11.8546 11.5 10.75 11.5C9.64543 11.5 8.75 10.6046 8.75 9.5C8.75 8.39543 9.64543 7.5 10.75 7.5C11.8546 7.5 12.75 8.39543 12.75 9.5Z" stroke="#667085" stroke-width="1.5" stroke-linecap="round" stroke-linejoin="round"/>
</g>
</g>
<defs>
<clipPath id="clip0_3909_9836">
<rect width="12" height="12" fill="white" transform="translate(6 6)"/>
</clipPath>
</defs>
</svg>
