<svg width="32" height="32" viewBox="0 0 32 32" fill="none" xmlns="http://www.w3.org/2000/svg">
<rect width="32" height="32" rx="6" fill="#F2F4F7"/>
<path d="M10.6666 21.3337C10.2999 21.3337 9.98603 21.2031 9.72492 20.942C9.46381 20.6809 9.33325 20.367 9.33325 20.0003V12.0003C9.33325 11.6337 9.46381 11.3198 9.72492 11.0587C9.98603 10.7975 10.2999 10.667 10.6666 10.667H14.6666L15.9999 12.0003H21.3333C21.6999 12.0003 22.0138 12.1309 22.2749 12.392C22.536 12.6531 22.6666 12.967 22.6666 13.3337V20.0003C22.6666 20.367 22.536 20.6809 22.2749 20.942C22.0138 21.2031 21.6999 21.3337 21.3333 21.3337H10.6666ZM10.6666 20.0003H21.3333V13.3337H15.4499L14.1166 12.0003H10.6666V20.0003Z" fill="#344054"/>
</svg>
