<svg width="20" height="20" viewBox="0 0 20 20" fill="none" xmlns="http://www.w3.org/2000/svg">
<path d="M17.5001 13.333V5.99967C17.5001 5.06625 17.5001 4.59954 17.3184 4.24302C17.1586 3.92942 16.9037 3.67445 16.5901 3.51466C16.2335 3.33301 15.7668 3.33301 14.8334 3.33301H5.16675C4.23333 3.33301 3.76662 3.33301 3.4101 3.51466C3.09649 3.67445 2.84153 3.92942 2.68174 4.24302C2.50008 4.59954 2.50008 5.06625 2.50008 5.99967V13.333M3.88897 16.6663H16.1112C16.6278 16.6663 16.8862 16.6663 17.0981 16.6096C17.6733 16.4554 18.1225 16.0062 18.2766 15.431C18.3334 15.2191 18.3334 14.9608 18.3334 14.4441C18.3334 14.1858 18.3334 14.0566 18.305 13.9507C18.228 13.6631 18.0033 13.4385 17.7158 13.3614C17.6098 13.333 17.4806 13.333 17.2223 13.333H2.77786C2.51953 13.333 2.39037 13.333 2.2844 13.3614C1.99682 13.4385 1.7722 13.6631 1.69514 13.9507C1.66675 14.0566 1.66675 14.1858 1.66675 14.4441C1.66675 14.9608 1.66675 15.2191 1.72354 15.431C1.87765 16.0062 2.3269 16.4554 2.90205 16.6096C3.11399 16.6663 3.37232 16.6663 3.88897 16.6663Z" stroke="#667085" stroke-width="2" stroke-linecap="round" stroke-linejoin="round"/>
</svg>
