<svg width="21" height="21" viewBox="0 0 21 21" fill="none" xmlns="http://www.w3.org/2000/svg">
<path d="M10.6368 11.5635C11.097 11.5635 11.4701 11.1904 11.4701 10.7301C11.4701 10.2699 11.097 9.89681 10.6368 9.89681C10.1766 9.89681 9.80347 10.2699 9.80347 10.7301C9.80347 11.1904 10.1766 11.5635 10.6368 11.5635Z" stroke="#98A2B3" stroke-width="1.66667" stroke-linecap="round" stroke-linejoin="round"/>
<path d="M10.6368 5.73014C11.097 5.73014 11.4701 5.35705 11.4701 4.89681C11.4701 4.43657 11.097 4.06348 10.6368 4.06348C10.1766 4.06348 9.80347 4.43657 9.80347 4.89681C9.80347 5.35705 10.1766 5.73014 10.6368 5.73014Z" stroke="#98A2B3" stroke-width="1.66667" stroke-linecap="round" stroke-linejoin="round"/>
<path d="M10.6368 17.3968C11.097 17.3968 11.4701 17.0237 11.4701 16.5635C11.4701 16.1032 11.097 15.7301 10.6368 15.7301C10.1766 15.7301 9.80347 16.1032 9.80347 16.5635C9.80347 17.0237 10.1766 17.3968 10.6368 17.3968Z" stroke="#98A2B3" stroke-width="1.66667" stroke-linecap="round" stroke-linejoin="round"/>
</svg>
