<svg width="40" height="40" viewBox="0 0 40 40" fill="none" xmlns="http://www.w3.org/2000/svg">
<rect width="40" height="40" rx="6" fill="white"/>
<path d="M17.7951 27.5003C18.3828 28.019 19.1546 28.3337 20 28.3337C20.8454 28.3337 21.6172 28.019 22.2048 27.5003M25 16.667C25 15.3409 24.4732 14.0691 23.5355 13.1315C22.5978 12.1938 21.3261 11.667 20 11.667C18.6739 11.667 17.4021 12.1938 16.4645 13.1315C15.5268 14.0691 15 15.3409 15 16.667C15 19.2421 14.3504 21.0053 13.6247 22.1715C13.0126 23.1552 12.7065 23.6471 12.7178 23.7843C12.7302 23.9362 12.7624 23.9942 12.8848 24.085C12.9954 24.167 13.4938 24.167 14.4907 24.167H25.5093C26.5062 24.167 27.0046 24.167 27.1152 24.085C27.2376 23.9942 27.2698 23.9362 27.2822 23.7843C27.2934 23.6471 26.9874 23.1552 26.3753 22.1715C25.6496 21.0053 25 19.2421 25 16.667Z" stroke="#667085" stroke-width="1.66667" stroke-linecap="round" stroke-linejoin="round"/>
</svg>
