<svg width="20" height="20" viewBox="0 0 20 20" fill="none" xmlns="http://www.w3.org/2000/svg">
<path d="M10.0001 14.5837H10.0084M6.83341 18.3337H13.1667C14.1002 18.3337 14.5669 18.3337 14.9234 18.152C15.237 17.9922 15.492 17.7372 15.6518 17.4236C15.8334 17.0671 15.8334 16.6004 15.8334 15.667V4.33366C15.8334 3.40024 15.8334 2.93353 15.6518 2.57701C15.492 2.2634 15.237 2.00844 14.9234 1.84865C14.5669 1.66699 14.1002 1.66699 13.1667 1.66699H6.83341C5.89999 1.66699 5.43328 1.66699 5.07676 1.84865C4.76316 2.00844 4.50819 2.2634 4.3484 2.57701C4.16675 2.93353 4.16675 3.40024 4.16675 4.33366V15.667C4.16675 16.6004 4.16675 17.0671 4.3484 17.4236C4.50819 17.7372 4.76316 17.9922 5.07676 18.152C5.43328 18.3337 5.89999 18.3337 6.83341 18.3337ZM10.4167 14.5837C10.4167 14.8138 10.2302 15.0003 10.0001 15.0003C9.76996 15.0003 9.58341 14.8138 9.58341 14.5837C9.58341 14.3535 9.76996 14.167 10.0001 14.167C10.2302 14.167 10.4167 14.3535 10.4167 14.5837Z" stroke="#344054" stroke-width="2" stroke-linecap="round" stroke-linejoin="round"/>
</svg>
