<svg width="40" height="24" viewBox="0 0 40 24" fill="none" xmlns="http://www.w3.org/2000/svg">
<g clip-path="url(#clip0_2207_65567)">
<path d="M33.2 0H6.8C3.05039 0 0 3.05039 0 6.8V17.2C0 20.9496 3.05039 24 6.8 24H33.2C36.9496 24 40 20.9496 40 17.2V6.8C40 3.05039 36.9496 0 33.2 0ZM38.4 17.2C38.4 20.0672 36.0672 22.4 33.2 22.4H6.8C3.93262 22.4 1.6 20.0672 1.6 17.2V6.8C1.6 3.93281 3.93262 1.6 6.8 1.6H33.2C36.0672 1.6 38.4 3.93281 38.4 6.8V17.2Z" fill="#12202B"/>
<path d="M12.5811 9.43718L9.74264 12.861L8.17174 11.2747C7.86061 10.9606 7.35416 10.9575 7.04029 11.2692C6.72643 11.5801 6.72389 12.0864 7.03463 12.4005L9.22662 14.6141C9.37721 14.7661 9.58209 14.8512 9.79518 14.8512C9.8069 14.8512 9.81861 14.8508 9.83053 14.8505C10.0561 14.8403 10.2671 14.7356 10.411 14.5618L13.8128 10.4583C14.0948 10.118 14.0477 9.61374 13.7075 9.33171C13.3678 9.04968 12.8631 9.09656 12.5811 9.43718Z" fill="#12202B"/>
<path d="M20.0002 5.2002C19.5584 5.2002 19.2002 5.5584 19.2002 6.0002V18.0002C19.2002 18.442 19.5584 18.8002 20.0002 18.8002C20.442 18.8002 20.8002 18.442 20.8002 18.0002V6.0002C20.8002 5.5584 20.442 5.2002 20.0002 5.2002Z" fill="#12202B"/>
<path d="M32.2173 9.38281C31.9048 9.07031 31.3985 9.07031 31.086 9.38281L29.6001 10.8689L28.1142 9.38281C27.8017 9.07031 27.2954 9.07031 26.9829 9.38281C26.6704 9.69531 26.6704 10.2016 26.9829 10.5141L28.4689 12.0002L26.9829 13.4863C26.6704 13.7988 26.6704 14.3051 26.9829 14.6176C27.1392 14.7738 27.3438 14.8519 27.5485 14.8519C27.7532 14.8519 27.9579 14.7738 28.1142 14.6176L29.6001 13.1315L31.086 14.6176C31.2423 14.7738 31.447 14.8519 31.6517 14.8519C31.8563 14.8519 32.061 14.7738 32.2173 14.6176C32.5298 14.3051 32.5298 13.7988 32.2173 13.4863L30.7313 12.0002L32.2173 10.5141C32.5298 10.2016 32.5298 9.69531 32.2173 9.38281Z" fill="#12202B"/>
</g>
<defs>
<clipPath id="clip0_2207_65567">
<rect width="40" height="24" fill="white"/>
</clipPath>
</defs>
</svg>
