<svg width="40" height="24" viewBox="0 0 40 24" fill="none" xmlns="http://www.w3.org/2000/svg">
<g clip-path="url(#clip0_2207_65607)">
<path d="M33.2 0H6.8C3.05039 0 0 3.05039 0 6.8V17.2C0 20.9496 3.05039 24 6.8 24H33.2C36.9496 24 40 20.9496 40 17.2V6.8C40 3.05039 36.9496 0 33.2 0ZM38.4 17.2C38.4 20.0672 36.0672 22.4 33.2 22.4H6.8C3.93262 22.4 1.6 20.0672 1.6 17.2V6.8C1.6 3.93262 3.93262 1.6 6.8 1.6H33.2C36.0672 1.6 38.4 3.93262 38.4 6.8V17.2Z" fill="#12202B"/>
<path d="M18.8267 10.4682C18.9773 10.6204 19.1822 10.7053 19.3953 10.7053C19.407 10.7053 19.4187 10.7051 19.4306 10.7045C19.6562 10.6946 19.8672 10.5897 20.0111 10.4159L23.413 6.31234C23.6951 5.9723 23.6478 5.46781 23.3076 5.18597C22.9681 4.90453 22.4634 4.95082 22.181 5.29125L19.3427 8.71527L17.7718 7.12875C17.4605 6.81468 16.9545 6.81253 16.6404 7.12308C16.3265 7.43402 16.324 7.94066 16.6347 8.25453L18.8267 10.4682Z" fill="#12202B"/>
<path d="M33.0002 13.6943H7.0002C6.5584 13.6943 6.2002 14.0525 6.2002 14.4943C6.2002 14.9361 6.5584 15.2943 7.0002 15.2943H33.0002C33.442 15.2943 33.8002 14.9361 33.8002 14.4943C33.8002 14.0525 33.442 13.6943 33.0002 13.6943Z" fill="#12202B"/>
<path d="M29.6001 17.3984H10.4001C9.9583 17.3984 9.6001 17.7566 9.6001 18.1984C9.6001 18.6402 9.9583 18.9984 10.4001 18.9984H29.6001C30.0419 18.9984 30.4001 18.6402 30.4001 18.1984C30.4001 17.7566 30.0419 17.3984 29.6001 17.3984Z" fill="#12202B"/>
</g>
<defs>
<clipPath id="clip0_2207_65607">
<rect width="40" height="24" fill="white"/>
</clipPath>
</defs>
</svg>
