<svg width="40" height="40" viewBox="0 0 40 40" fill="none" xmlns="http://www.w3.org/2000/svg">
<rect width="40" height="40" rx="6" fill="white"/>
<g clip-path="url(#clip0_2201_44848)">
<path d="M20 22.5003C21.3807 22.5003 22.5 21.381 22.5 20.0003C22.5 18.6196 21.3807 17.5003 20 17.5003C18.6193 17.5003 17.5 18.6196 17.5 20.0003C17.5 21.381 18.6193 22.5003 20 22.5003Z" stroke="#667085" stroke-width="1.66667" stroke-linecap="round" stroke-linejoin="round"/>
<path d="M25.6061 22.2731C25.5052 22.5016 25.4751 22.755 25.5197 23.0008C25.5643 23.2465 25.6814 23.4733 25.8561 23.6518L25.9015 23.6973C26.0424 23.838 26.1541 24.0051 26.2304 24.1891C26.3066 24.373 26.3459 24.5702 26.3459 24.7693C26.3459 24.9684 26.3066 25.1655 26.2304 25.3495C26.1541 25.5334 26.0424 25.7005 25.9015 25.8412C25.7608 25.9821 25.5937 26.0939 25.4098 26.1701C25.2258 26.2464 25.0287 26.2856 24.8295 26.2856C24.6304 26.2856 24.4333 26.2464 24.2493 26.1701C24.0654 26.0939 23.8983 25.9821 23.7576 25.8412L23.7121 25.7958C23.5336 25.6211 23.3068 25.504 23.0611 25.4594C22.8153 25.4149 22.5618 25.4449 22.3333 25.5458C22.1093 25.6418 21.9182 25.8013 21.7836 26.0045C21.649 26.2078 21.5767 26.4459 21.5758 26.6897V26.8185C21.5758 27.2204 21.4161 27.6057 21.132 27.8899C20.8478 28.174 20.4624 28.3337 20.0606 28.3337C19.6588 28.3337 19.2734 28.174 18.9892 27.8899C18.7051 27.6057 18.5455 27.2204 18.5455 26.8185V26.7503C18.5396 26.4996 18.4584 26.2564 18.3125 26.0524C18.1666 25.8484 17.9627 25.693 17.7273 25.6064C17.4988 25.5055 17.2453 25.4755 16.9996 25.52C16.7538 25.5646 16.527 25.6817 16.3485 25.8564L16.303 25.9018C16.1623 26.0427 15.9952 26.1545 15.8113 26.2307C15.6273 26.307 15.4302 26.3462 15.2311 26.3462C15.0319 26.3462 14.8348 26.307 14.6508 26.2307C14.4669 26.1545 14.2998 26.0427 14.1591 25.9018C14.0182 25.7611 13.9065 25.594 13.8302 25.4101C13.754 25.2261 13.7147 25.029 13.7147 24.8299C13.7147 24.6308 13.754 24.4336 13.8302 24.2497C13.9065 24.0657 14.0182 23.8986 14.1591 23.7579L14.2045 23.7124C14.3792 23.5339 14.4964 23.3071 14.5409 23.0614C14.5855 22.8156 14.5554 22.5622 14.4545 22.3337C14.3585 22.1096 14.1991 21.9185 13.9958 21.7839C13.7926 21.6493 13.5544 21.5771 13.3106 21.5761H13.1818C12.78 21.5761 12.3946 21.4165 12.1104 21.1323C11.8263 20.8482 11.6667 20.4628 11.6667 20.0609C11.6667 19.6591 11.8263 19.2737 12.1104 18.9896C12.3946 18.7054 12.78 18.5458 13.1818 18.5458H13.25C13.5008 18.5399 13.7439 18.4587 13.948 18.3128C14.152 18.1669 14.3074 17.963 14.3939 17.7276C14.4948 17.4991 14.5249 17.2456 14.4803 16.9999C14.4357 16.7541 14.3186 16.5274 14.1439 16.3488L14.0985 16.3034C13.9576 16.1626 13.8459 15.9955 13.7696 15.8116C13.6934 15.6277 13.6541 15.4305 13.6541 15.2314C13.6541 15.0323 13.6934 14.8351 13.7696 14.6512C13.8459 14.4672 13.9576 14.3001 14.0985 14.1594C14.2392 14.0185 14.4063 13.9068 14.5902 13.8305C14.7742 13.7543 14.9713 13.715 15.1705 13.715C15.3696 13.715 15.5667 13.7543 15.7507 13.8305C15.9346 13.9068 16.1017 14.0185 16.2424 14.1594L16.2879 14.2049C16.4664 14.3795 16.6932 14.4967 16.9389 14.5412C17.1847 14.5858 17.4382 14.5557 17.6667 14.4549H17.7273C17.9513 14.3588 18.1424 14.1994 18.277 13.9961C18.4116 13.7929 18.4839 13.5547 18.4848 13.3109V13.1821C18.4848 12.7803 18.6445 12.3949 18.9286 12.1108C19.2128 11.8266 19.5982 11.667 20 11.667C20.4018 11.667 20.7872 11.8266 21.0714 12.1108C21.3555 12.3949 21.5151 12.7803 21.5151 13.1821V13.2503C21.5161 13.4941 21.5884 13.7323 21.723 13.9355C21.8576 14.1388 22.0487 14.2982 22.2727 14.3943C22.5012 14.4951 22.7547 14.5252 23.0004 14.4806C23.2462 14.4361 23.473 14.3189 23.6515 14.1443L23.697 14.0988C23.8377 13.9579 24.0048 13.8462 24.1887 13.7699C24.3727 13.6937 24.5698 13.6544 24.7689 13.6544C24.9681 13.6544 25.1652 13.6937 25.3492 13.7699C25.5331 13.8462 25.7002 13.9579 25.8409 14.0988C25.9818 14.2395 26.0935 14.4066 26.1698 14.5906C26.246 14.7745 26.2853 14.9717 26.2853 15.1708C26.2853 15.3699 26.246 15.5671 26.1698 15.751C26.0935 15.9349 25.9818 16.102 25.8409 16.2427L25.7955 16.2882C25.6208 16.4667 25.5036 16.6935 25.4591 16.9393C25.4145 17.185 25.4446 17.4385 25.5455 17.667V17.7276C25.6415 17.9517 25.8009 18.1428 26.0042 18.2774C26.2074 18.412 26.4456 18.4842 26.6894 18.4852H26.8182C27.22 18.4852 27.6054 18.6448 27.8896 18.929C28.1737 19.2131 28.3333 19.5985 28.3333 20.0003C28.3333 20.4022 28.1737 20.7876 27.8896 21.0717C27.6054 21.3558 27.22 21.5155 26.8182 21.5155H26.75C26.5062 21.5164 26.268 21.5887 26.0648 21.7233C25.8615 21.8579 25.7021 22.049 25.6061 22.2731Z" stroke="#667085" stroke-width="1.66667" stroke-linecap="round" stroke-linejoin="round"/>
</g>
<defs>
<clipPath id="clip0_2201_44848">
<rect width="20" height="20" fill="white" transform="translate(10 10)"/>
</clipPath>
</defs>
</svg>
