<svg width="32" height="32" viewBox="0 0 32 32" fill="none" xmlns="http://www.w3.org/2000/svg">
<rect width="32" height="32" rx="6" fill="#E9D7FE"/>
<path d="M22 11.333L14.6667 11.333M22 20.6663L14.6667 20.6663M22 15.9997L14.6667 15.9997M12 11.333C12 11.8853 11.5523 12.333 11 12.333C10.4477 12.333 10 11.8853 10 11.333C10 10.7807 10.4477 10.333 11 10.333C11.5523 10.333 12 10.7807 12 11.333ZM12 20.6663C12 21.2186 11.5523 21.6663 11 21.6663C10.4477 21.6663 10 21.2186 10 20.6663C10 20.1141 10.4477 19.6663 11 19.6663C11.5523 19.6663 12 20.1141 12 20.6663ZM12 15.9997C12 16.552 11.5523 16.9997 11 16.9997C10.4477 16.9997 10 16.552 10 15.9997C10 15.4474 10.4477 14.9997 11 14.9997C11.5523 14.9997 12 15.4474 12 15.9997Z" stroke="black" stroke-width="2" stroke-linecap="round" stroke-linejoin="round"/>
</svg>
